REM MD5 6d0e0c8c27f15d6af50596258eb68bfd
FILE "Lunar - Silver Star Story (Japan) (Demo).bin" BINARY
  TRACK 01 MODE2/2352
    INDEX 01 00:00:00
  TRACK 02 AUDIO
    INDEX 00 18:01:32
    INDEX 01 18:03:32
  TRACK 03 AUDIO
    INDEX 00 18:47:02
    INDEX 01 18:49:02
REM LEADOUT 21:15:49
